<?xml version="1.0" standalone="no"?>
<!DOCTYPE svg PUBLIC "-//W3C//DTD SVG 20010904//EN"
 "http://www.w3.org/TR/2001/REC-SVG-20010904/DTD/svg10.dtd">
<svg version="1.0" xmlns="http://www.w3.org/2000/svg"
 width="512.000000pt" height="512.000000pt" viewBox="0 0 512.000000 512.000000"
 preserveAspectRatio="xMidYMid meet">

<g transform="translate(0.000000,512.000000) scale(0.100000,-0.100000)"
fill="#000000" stroke="none">
<path d="M2003 4820 c-41 -25 -63 -68 -63 -122 0 -24 11 -115 24 -204 36 -238
50 -494 43 -829 -8 -421 -46 -721 -132 -1060 -61 -243 -120 -399 -245 -651
l-110 -222 -153 -50 c-582 -193 -1074 -484 -1263 -748 -76 -106 -98 -166 -99
-264 0 -73 4 -93 28 -142 50 -103 167 -197 286 -232 69 -20 189 -21 266 -1
305 79 658 443 1028 1060 81 135 85 140 128 153 101 29 353 74 576 102 131 17
288 37 348 46 62 8 220 18 360 21 l250 6 44 -49 c25 -27 108 -109 185 -183
663 -630 1193 -812 1487 -510 33 33 71 86 90 126 30 59 34 78 34 143 0 60 -5
86 -27 133 -33 71 -120 164 -209 223 -272 181 -814 328 -1369 373 l-115 9 -83
89 c-416 439 -714 1005 -917 1737 -82 297 -124 500 -155 756 -26 206 -34 236
-75 277 -28 28 -40 33 -81 33 -31 0 -61 -7 -81 -20z m327 -1710 c158 -397 365
-761 597 -1047 46 -57 83 -104 83 -106 0 -2 -58 -7 -130 -10 -71 -4 -198 -16
-282 -27 -84 -11 -227 -29 -318 -40 -91 -11 -217 -29 -281 -40 -64 -11 -119
-20 -123 -20 -3 0 11 35 33 78 163 324 282 756 338 1226 9 80 18 144 19 143 2
-1 30 -72 64 -157z m1722 -1524 c408 -88 721 -228 784 -348 13 -24 13 -32 0
-55 -95 -183 -369 -138 -729 118 -125 89 -407 327 -407 343 0 6 237 -33 352
-58z m-2767 -243 c-143 -223 -285 -405 -429 -549 -225 -224 -397 -293 -519
-208 -23 17 -48 42 -56 56 -14 24 -13 31 9 80 61 132 298 316 613 475 106 54
372 171 391 172 4 1 0 -11 -9 -26z"/>
</g>
</svg>
