<svg xmlns="http://www.w3.org/2000/svg" viewBox="290 210 360 360" width="30px" height="100%">
<path d="M0 0h960v960H0z" fill="none"/>
<path d="M461 212.6c-1.4.2-5.9.9-10 1.5-4.1.5-8.6 1.4-10 1.8-1.4.5-5.2 1.6-8.5 2.6-3.3.9-7.2 2.3-8.7 3.1-1.4.8-3.1 1.4-3.7 1.4-.7 0-4.1 1.3-7.6 3-3.5 1.6-6.8 3-7.3 3s-1.5.7-2.2 1.5c-.7.8-1.9 1.5-2.6 1.5-.8 0-4.6 2.3-8.6 5.1-4 2.7-9.1 6.2-11.3 7.6-8.1 5.2-24.8 20.7-32 29.7-4.5 5.6-11.5 16.3-11.5 17.4 0 .5-.8 1.7-1.7 2.8-5.4 6-16.8 31.2-19.3 42.4-.6 3-1.8 6.8-2.5 8.5-2 4.4-3.9 29.5-3.1 40.5 1.1 15.5 3.6 32.3 5.1 34.7.8 1.2 1.5 3.9 1.5 6 0 4.9 7 23 14.2 36.8 2.6 5 11.8 18.3 17.1 25 8.1 10 27.8 28.2 35.8 33 1.8 1.1 4 2.5 4.9 3 9.9 6.6 13.2 8.3 26.5 13.8 13 5.3 35.4 11.3 38.2 10.2.9-.3 2.2 0 3 .7 1.1.9 7.4 1.3 20.7 1.6 18.3.3 29.6-.6 44.6-3.7 12.3-2.5 36-12.3 44-18.3 2.8-2 3.2-2.1 6.3-.6 1.7.8 4.8 1.9 6.7 2.2 4.5 1 41.7 15 49.4 18.7 3.3 1.6 7 2.9 8.2 2.9 1.2 0 2.5.7 2.8 1.6.3.8 1.1 1.2 1.7.9.6-.4-4.9-6.5-13.3-14.5-17-16.5-31.1-30.9-52.4-53.8-7.5-8-20.7-21.5-23.2-23.6-2.1-1.9-2.2-1.8-6.4 1.6-2.4 1.9-5.4 4.1-6.8 4.8-1.4.7-2.7 1.6-3 1.9-.3.4-1.6 1.2-3 1.9-1.4.6-3.2 1.6-4 2.2-5.6 3.6-18.3 8.2-29.5 10.6-7 1.6-31.7 2.1-37.4.8-10.5-2.4-35.1-12.6-35.1-14.6 0-.4-.5-.8-1.1-.8-1.2 0-15.1-10.5-19.4-14.7-8.2-7.9-17.3-20.6-20.1-28-.9-2.4-2.1-4.3-2.5-4.3-.5 0-.9-1-.9-2.3 0-1.3-.5-2.8-1-3.3-.6-.6-2.4-6.4-4.1-13-3-11.5-3.1-12.4-2.6-27.4.3-8.5 1.1-17.1 1.8-19 4.8-13.8 9.1-24.5 11.5-28.2 1.3-2.1 2.4-4 2.4-4.3 0-.8 9.4-12.6 11.7-14.7 1-.9 4.1-4 6.8-6.8 2.8-2.8 6.4-5.8 8-6.7 1.7-.8 3.9-2.3 5-3.3s7-4.3 13-7.4c18.9-9.6 39.5-13.3 58.7-10.6 10.6 1.5 27.6 6.8 36 11.2 12.8 6.8 33.9 27.7 40.8 40.4 1.2 2.2 2.5 4.6 3 5.4 4.5 7.9 9.6 27.8 9.9 38.9.1 4.1.4 7.9.7 8.3 1.1 1.7-1.8 22.7-4.4 32.3-2.6 9.5-2.9 10-5.2 9.7-3.1-.4-29.7-9.3-41-13.7-14.4-5.7-20.4-7.5-21.3-6.6-.4.4 3.6 5.5 9.1 11.2 5.5 5.7 11.9 12.5 14.3 15.2 6.2 6.6 38 38.7 48.4 48.7 10.6 10.1 17.3 15.9 18.7 16 1.7 0 11.7-10.5 14.1-14.7.7-1.2 3.1-4.9 5.4-8.3 5.4-7.8 16.3-30.1 16.3-33.3 0-.9.4-1.8.9-2.1.5-.3 1.4-3 2.1-5.8.6-2.9 1.8-7.1 2.6-9.3 2.6-7.7 4.5-25.6 4.3-41.5-.2-16.3-2.1-36.5-3.7-39.6-.5-1.1-1.3-3.7-1.7-5.9-.4-2.2-1-4.5-1.5-5-.4-.6-1.3-2.8-2-5-2.4-7.5-6.2-16-7.7-16.8-.8-.5-1.1-1.6-.8-2.6.3-1-.1-2.4-1-3.1-.8-.7-3.3-4.5-5.5-8.5a118.4 118.4 0 0 0-22.3-28.9c-8-7.7-24.1-21.6-25-21.6-.3 0-1.9-1.3-3.5-2.9-1.7-1.5-6.4-4.4-10.4-6.4-13.4-6.5-20.7-9.7-22.2-9.7-.8 0-1.8-.5-2.1-1-.3-.6-1.7-1-3.1-1-1.4 0-3.5-.6-4.7-1.4-2.2-1.4-5.9-2.4-21.2-5.3-7.6-1.4-43.6-2.7-49.5-1.7z"/></svg>