<?xml version="1.0" standalone="no"?>
<!DOCTYPE svg PUBLIC "-//W3C//DTD SVG 20010904//EN"
 "http://www.w3.org/TR/2001/REC-SVG-20010904/DTD/svg10.dtd">
<svg version="1.0" xmlns="http://www.w3.org/2000/svg"
 width="512.000000pt" height="512.000000pt" viewBox="0 0 512.000000 512.000000"
 preserveAspectRatio="xMidYMid meet">

<g transform="translate(0.000000,512.000000) scale(0.100000,-0.100000)"
fill="#000000" stroke="none">
<path d="M412 5100 c-97 -26 -173 -70 -248 -144 -75 -76 -119 -151 -144 -252
-20 -76 -20 -115 -20 -2144 0 -2029 0 -2068 20 -2144 25 -101 69 -176 144
-252 76 -75 151 -119 252 -144 76 -20 115 -20 2144 -20 2029 0 2068 0 2144 20
101 25 176 69 252 144 75 76 119 151 144 252 20 76 20 115 20 2144 0 2029 0
2068 -20 2144 -26 103 -69 177 -149 256 -79 77 -142 114 -247 140 -76 20 -117
20 -2148 19 -2010 0 -2073 -1 -2144 -19z m2448 -614 c429 -54 752 -209 1013
-486 107 -114 200 -252 271 -400 59 -127 120 -295 113 -314 -5 -11 -314 -103
-321 -95 -1 2 -17 47 -35 99 -92 267 -252 490 -451 629 -242 170 -567 253
-930 238 -386 -16 -667 -122 -891 -335 -220 -209 -352 -506 -411 -922 -20
-142 -17 -564 5 -710 56 -375 175 -651 367 -854 177 -186 412 -303 705 -352
150 -25 467 -25 610 0 269 47 474 153 643 330 178 188 246 422 190 656 -23 99
-77 191 -157 270 -42 41 -91 83 -108 92 l-31 18 -12 -68 c-29 -154 -99 -329
-175 -432 -50 -69 -154 -163 -227 -205 -136 -80 -327 -122 -502 -112 -234 15
-416 93 -549 237 -106 114 -157 246 -157 405 0 348 276 610 701 665 100 13
374 12 482 -1 49 -6 91 -8 94 -6 9 10 -26 126 -57 188 -79 155 -220 229 -440
229 -190 0 -318 -54 -421 -177 l-26 -31 -142 94 -142 95 33 46 c38 52 119 129
185 174 161 111 406 166 623 140 221 -27 358 -88 491 -220 150 -150 218 -310
254 -602 6 -45 7 -46 68 -75 98 -46 229 -138 306 -215 127 -127 209 -277 249
-457 24 -108 23 -329 -2 -437 -70 -307 -284 -578 -601 -762 -163 -95 -374
-161 -609 -189 -159 -20 -480 -14 -626 10 -771 131 -1229 637 -1357 1501 -25
172 -25 658 0 830 112 752 475 1236 1078 1432 106 35 286 73 409 86 93 10 387
6 490 -7z"/>
<path d="M2555 2500 c-139 -22 -242 -67 -309 -133 -129 -130 -109 -319 45
-418 84 -53 158 -72 289 -72 172 1 290 47 376 147 71 83 131 241 149 392 l7
60 -79 13 c-99 16 -399 23 -478 11z"/>
</g>
</svg>
