<?xml version="1.0" standalone="no"?>
<!DOCTYPE svg PUBLIC "-//W3C//DTD SVG 20010904//EN"
 "http://www.w3.org/TR/2001/REC-SVG-20010904/DTD/svg10.dtd">
<svg version="1.0" xmlns="http://www.w3.org/2000/svg"
 width="512.000000pt" height="512.000000pt" viewBox="0 0 512.000000 512.000000"
 preserveAspectRatio="xMidYMid meet">

<g transform="translate(0.000000,512.000000) scale(0.100000,-0.100000)"
fill="#000000" stroke="none">
<path d="M1068 4849 c-138 -20 -288 -77 -395 -150 -69 -47 -188 -164 -239
-236 -60 -83 -119 -212 -146 -319 l-23 -89 0 -1495 0 -1495 22 -88 c45 -176
133 -327 263 -451 128 -122 260 -196 427 -239 l88 -22 1490 0 c1415 0 1494 1
1569 18 184 44 322 121 457 256 135 135 212 273 256 457 17 75 18 154 18 1569
l0 1490 -22 88 c-43 167 -121 305 -242 430 -122 127 -271 213 -443 259 l-83
22 -1470 2 c-808 1 -1496 -2 -1527 -7z m1203 -1269 c260 -324 476 -586 480
-582 3 4 207 259 454 567 246 308 457 570 469 583 21 22 27 22 179 20 l157 -3
-550 -685 c-302 -377 -550 -687 -550 -690 0 -3 318 -402 706 -885 388 -484
719 -897 736 -917 l30 -38 -530 0 -530 0 -473 590 c-260 324 -476 586 -480
582 -3 -4 -214 -267 -469 -586 -255 -318 -469 -580 -475 -582 -6 -3 -79 -3
-163 -2 l-152 3 550 685 c302 377 550 687 550 690 0 5 -1272 1594 -1438 1798
l-34 42 530 0 530 0 473 -590z"/>
<path d="M1272 3912 c2 -4 491 -616 1088 -1360 l1085 -1352 203 0 c112 0 202
4 200 8 -1 5 -491 617 -1088 1360 l-1085 1352 -203 0 c-112 0 -202 -4 -200 -8z"/>
</g>
</svg>
